<svg width="51" height="50" viewBox="0 0 51 50" fill="none" xmlns="http://www.w3.org/2000/svg">
<path d="M50.5 25C50.5 38.8072 39.3072 50 25.5 50C11.6928 50 0.5 38.8072 0.5 25C0.5 11.1928 11.6928 0 25.5 0C39.3072 0 50.5 11.1928 50.5 25ZM22.6083 38.2373L41.1567 19.6889C41.7865 19.0591 41.7865 18.0378 41.1567 17.408L38.8757 15.127C38.2459 14.4971 37.2246 14.4971 36.5947 15.127L21.4677 30.2538L14.4053 23.1914C13.7755 22.5616 12.7542 22.5616 12.1243 23.1914L9.84335 25.4724C9.21351 26.1022 9.21351 27.1235 9.84335 27.7533L20.3272 38.2372C20.9572 38.8671 21.9783 38.8671 22.6083 38.2373Z" fill="#3F989A"/>
</svg>
