<svg width="537" height="871" viewBox="0 0 537 871" fill="none" xmlns="http://www.w3.org/2000/svg">
<g clip-path="url(#clip0_93_62)">
<g opacity="0.5">
<path opacity="0.5" d="M0.601969 494.996C0.601966 565.326 59.5481 622.339 132.262 622.339C204.976 622.339 263.922 565.326 263.922 494.996C263.922 424.667 204.976 367.654 132.262 367.654C59.5482 367.654 0.601972 424.667 0.601969 494.996Z" fill="#A28EB3"/>
<path opacity="0.5" d="M234.961 714.826C234.961 798.281 302.602 865.934 386.042 865.934C469.482 865.934 537.123 798.281 537.123 714.826C537.123 631.371 469.482 563.718 386.042 563.718C302.602 563.718 234.961 631.371 234.961 714.826Z" fill="#94BF99"/>
<path opacity="0.5" d="M147.045 178.323C147.045 276.325 226.477 355.771 324.461 355.771C422.445 355.771 501.877 276.325 501.877 178.323C501.877 80.3214 422.445 0.875241 324.461 0.875236C226.477 0.875232 147.045 80.3214 147.045 178.323Z" fill="#8CC1C2"/>
</g>
</g>
<defs>
<clipPath id="clip0_93_62">
<rect width="871" height="537" fill="white" transform="translate(537) rotate(90)"/>
</clipPath>
</defs>
</svg>
