<svg xmlns="http://www.w3.org/2000/svg" viewBox="0 0 800 800"><defs><style>.cls-1{fill:#8cc1c2;}.cls-2,.cls-4{fill:none;}.cls-2{stroke:#fdffff;stroke-linecap:round;stroke-width:10px;stroke-dasharray:0 40.25;}.cls-2,.cls-3,.cls-4{stroke-miterlimit:10;}.cls-3{fill:#fff;}.cls-3,.cls-4{stroke:#4a4a49;}.cls-5{fill:#3f989a;}.cls-6{fill:#4c9455;}.cls-7{fill:#644380;}</style></defs><g id="iconography-1"><circle class="cls-1" cx="399.92" cy="398.5" r="350"/><circle class="cls-2" cx="398.54" cy="396.5" r="326.67"/><rect class="cls-3" x="205.26" y="141.83" width="389.33" height="513.33" rx="12" transform="translate(798.42 -1.42) rotate(90)"/><rect class="cls-3" x="206.55" y="178.96" width="357.33" height="440.4" rx="12" transform="translate(784.39 13.95) rotate(90)"/><circle class="cls-3" cx="630.92" cy="398.5" r="12.5"/><polyline class="cls-4" points="243.87 417.8 322.34 405.91 367.06 430.85 366.91 515.52 288.59 525.76 243.87 501.44 244.02 418.13 288.75 442.01"/><polyline class="cls-4" points="367.06 431.63 289.13 441.69 288.45 526.38"/><polyline class="cls-4" points="428.78 287.39 507.25 275.5 551.97 300.44 551.81 385.11 473.49 395.35 428.77 371.02 428.93 287.71 473.65 311.6"/><polyline class="cls-4" points="551.96 301.22 474.03 311.27 473.36 395.96"/><polygon class="cls-4" points="551.96 385.44 474.03 395.49 473.9 478.14 551.97 467.44 551.96 385.44"/><polygon class="cls-4" points="428.77 371.02 428.65 453 473.9 478.14 474.03 395.49 428.77 371.02"/><circle class="cls-5" cx="328.37" cy="479.31" r="17.93"/><circle class="cls-6" cx="512.37" cy="431.31" r="17.93"/><circle class="cls-7" cx="512.37" cy="348.31" r="17.93"/><path class="cls-6" d="M379,221.12l17.52-17.52a39,39,0,1,1-17.44-17.92l-17.76,17.77a12,12,0,0,0,0,17l.71.7A12,12,0,0,0,379,221.12Z"/><rect class="cls-6" x="147.79" y="300.19" width="244" height="25" rx="12" transform="translate(-142.09 282.36) rotate(-45)"/></g></svg>