<svg xmlns="http://www.w3.org/2000/svg" viewBox="0 0 800 800"><defs><style>.cls-1{fill:#8cc1c2;}.cls-2{fill:none;stroke:#fdffff;stroke-linecap:round;stroke-width:10px;stroke-dasharray:0 40.25;}.cls-2,.cls-3{stroke-miterlimit:10;}.cls-3,.cls-8{fill:#fff;}.cls-3{stroke:#4a4a49;}.cls-4{fill:#4a4a49;}.cls-5{fill:#3f989a;}.cls-6{fill:#4c9455;}.cls-7{fill:#644380;}</style></defs><g id="iconography-1"><circle class="cls-1" cx="399.42" cy="399.75" r="350"/><circle class="cls-2" cx="400.76" cy="399.75" r="326.67"/><rect class="cls-3" x="205.76" y="142.75" width="389.33" height="513.33" rx="12" transform="translate(799.84 -1.01) rotate(90)"/><rect class="cls-3" x="207.05" y="179.88" width="357.33" height="440.4" rx="12" transform="translate(785.8 14.36) rotate(90)"/><path class="cls-4" d="M397.92,295.75c-74.71,0-135.5,60.79-135.5,135.5v.5h1v-.5c0-74.16,60.34-134.5,134.5-134.5s134.5,60.34,134.5,134.5v.5h1v-.5C533.42,356.54,472.63,295.75,397.92,295.75Z"/><circle class="cls-5" cx="397.86" cy="295.68" r="17.93"/><circle class="cls-6" cx="261.93" cy="431.27" r="17.93"/><circle class="cls-7" cx="532.93" cy="431.27" r="17.93"/><path class="cls-6" d="M494.39,498.32,476.64,505l-12.17,4.55h0l-3.25,1.21-23.5,8.79L446.5,496l.95-2.56,4.83-12.88,6.64-17.75,54.67-20.45-32.1,32.09a7.79,7.79,0,1,0,1.4,1.44l31.77-31.78Z"/><rect class="cls-6" x="434.36" y="490.79" width="50" height="15" rx="6" transform="translate(486.89 -178.87) rotate(45)"/><rect class="cls-6" x="315.04" y="544.33" width="171.57" height="25" rx="12" transform="translate(-276.34 446.52) rotate(-45)"/><circle class="cls-3" cx="631.42" cy="399.42" r="12.5"/><rect class="cls-6" x="324.37" y="488.38" width="125.16" height="40.44" rx="12" transform="translate(300.93 1141.84) rotate(-135)"/><rect class="cls-6" x="387.06" y="566.21" width="125.52" height="10.49" rx="5.25" transform="translate(363.81 1293.61) rotate(-135)"/><path class="cls-6" d="M498.15,615.65l-4.23,4.24a3,3,0,0,1-3.46.56l-16.06-8a3,3,0,0,1-.78-4.81l12.45-12.45a3,3,0,0,1,4.82.81l7.84,16.2A3,3,0,0,1,498.15,615.65Z"/><rect class="cls-8" x="340" y="498.94" width="106.07" height="4.12" transform="translate(316.69 1133.18) rotate(-135)"/><rect class="cls-8" x="333.21" y="505.74" width="106.07" height="4.12" transform="translate(300.29 1139.98) rotate(-135)"/><rect class="cls-8" x="326.41" y="512.53" width="106.07" height="4.12" transform="translate(283.89 1146.77) rotate(-135)"/></g></svg>