<svg xmlns="http://www.w3.org/2000/svg" viewBox="0 0 800 800"><defs><style>.cls-1{fill:#8cc1c2;}.cls-2,.cls-7{fill:none;}.cls-2{stroke:#fdffff;stroke-linecap:round;stroke-width:10px;stroke-dasharray:0 40.25;}.cls-2,.cls-3,.cls-7{stroke-miterlimit:10;}.cls-3{fill:#fff;stroke:#4a4a49;}.cls-4{fill:#4c9455;}.cls-5{fill:#3f989a;}.cls-6{fill:#644380;}.cls-7{stroke:#1d1d1b;}.cls-8{fill:#f7f9f9;}.cls-9{fill:#1d1d1b;}</style></defs><g id="iconography-1"><circle class="cls-1" cx="399.92" cy="398.25" r="350"/><circle class="cls-2" cx="401.26" cy="398.25" r="326.67"/><rect class="cls-3" x="205.92" y="141.58" width="389.33" height="513.33" rx="12" transform="translate(2.34 798.84) rotate(-90)"/><rect class="cls-3" x="221.26" y="162.01" width="357.33" height="471.14" rx="12" transform="translate(2.34 797.51) rotate(-90)"/><circle class="cls-4" cx="249.7" cy="365.08" r="17.93"/><circle class="cls-5" cx="396.78" cy="365.08" r="17.93"/><circle class="cls-6" cx="543.78" cy="365.08" r="17.93"/><line class="cls-7" x1="198.92" y1="405.25" x2="299.92" y2="405.25"/><line class="cls-7" x1="198.92" y1="441.42" x2="299.92" y2="441.42"/><line class="cls-7" x1="198.92" y1="477.58" x2="299.92" y2="477.58"/><line class="cls-7" x1="198.92" y1="513.75" x2="299.92" y2="513.75"/><line class="cls-7" x1="345.92" y1="405.25" x2="446.92" y2="405.25"/><line class="cls-7" x1="345.92" y1="441.42" x2="378.42" y2="441.42"/><line class="cls-7" x1="345.92" y1="477.58" x2="446.92" y2="477.58"/><line class="cls-7" x1="345.92" y1="513.75" x2="446.92" y2="513.75"/><line class="cls-7" x1="492.92" y1="405.25" x2="593.92" y2="405.25"/><line class="cls-7" x1="492.92" y1="441.42" x2="593.92" y2="441.42"/><line class="cls-7" x1="492.92" y1="477.58" x2="593.92" y2="477.58"/><line class="cls-7" x1="492.92" y1="513.75" x2="593.92" y2="513.75"/><path class="cls-4" d="M444.78,449.78l-22.12-22.12c-6.85-6.7-2.57-16,4-21a12.07,12.07,0,0,1,17,0l21.89,21.89A49.27,49.27,0,0,1,444.78,449.78Z"/><path class="cls-4" d="M631.69,611.65c-5,6.6-14.31,10.89-21,4L452.4,457.4a59.67,59.67,0,0,0,20.82-21.18L631.69,594.68A12,12,0,0,1,631.69,611.65Z"/><path class="cls-4" d="M470.59,402.25a49,49,0,0,0-44.08-44.54c5.46,26.46-29.36,44.71-47.91,25.56-23.25,41.16,24.4,89.64,66.18,66.51C461.86,440.88,472.48,421.47,470.59,402.25Z"/><path class="cls-8" d="M470.78,406.25a49.15,49.15,0,0,1-26,43.53c-41.78,23.13-89.43-25.36-66.18-66.51,18.56,19.15,53.36.89,47.91-25.56A49.1,49.1,0,0,1,470.78,406.25Z"/><path class="cls-9" d="M470.78,406.25h-98c0-1.35.07-2.68.19-4h97.64C470.71,403.57,470.77,404.9,470.78,406.25Z"/><path class="cls-4" d="M422.4,347.09c-79.15,1.75-79.36,116.41-.63,118.81C499.72,464,500.32,349.81,422.4,347.09Zm48.38,59.4c-1.15,59.23-85.26,67-97.21,8.91C363.75,345.47,467.67,335.8,470.78,406.49Z"/><path class="cls-9" d="M450.43,446.25a46.51,46.51,0,0,1-6.56,4c-5.76-.89-47.52,2.94-50.76-4Z"/><path class="cls-5" d="M426.92,362.56c.87,24.67-31.44,38.15-48.32,20.71a49.11,49.11,0,0,1,47.91-25.56A28.77,28.77,0,0,1,426.92,362.56Z"/></g></svg>