<svg width="40" height="40" viewBox="0 0 40 40" fill="none" xmlns="http://www.w3.org/2000/svg">
<path fill-rule="evenodd" clip-rule="evenodd" d="M20 0C31.0383 0 40 8.96167 40 20C40 31.0383 31.0383 40 20 40C8.96167 40 0 31.0383 0 20C0 8.96167 8.96167 0 20 0ZM20 1.66667C30.1183 1.66667 38.3333 9.88167 38.3333 20C38.3333 30.1183 30.1183 38.3333 20 38.3333C9.88167 38.3333 1.66667 30.1183 1.66667 20C1.66667 9.88167 9.88167 1.66667 20 1.66667Z" fill="#1D1D1D"/>
<rect x="7.19995" y="13.6" width="25.6" height="1.8" fill="#1D1D1D"/>
<rect x="7.19995" y="24.8" width="25.6" height="1.8" fill="#1D1D1D"/>
<rect x="7.19995" y="19.2" width="25.6" height="1.8" fill="#1D1D1D"/>
</svg>
