<svg xmlns="http://www.w3.org/2000/svg" xmlns:xlink="http://www.w3.org/1999/xlink" viewBox="0 0 516 104"><defs><style>.cls-1{fill:none;}.cls-2{isolation:isolate;}.cls-3{clip-path:url(#clip-path);}.cls-4{fill:#1d1c1a;}.cls-5{mix-blend-mode:soft-light;opacity:0.57;}.cls-6{clip-path:url(#clip-path-3);}.cls-7{fill:#644280;}.cls-8{clip-path:url(#clip-path-4);}.cls-9{fill:#3e9699;}.cls-10{clip-path:url(#clip-path-5);}.cls-11{fill:#349ab8;}.cls-12{clip-path:url(#clip-path-6);}.cls-13{fill:#4e80a6;}.cls-14{clip-path:url(#clip-path-7);}.cls-15{fill:#5c6494;}.cls-16{clip-path:url(#clip-path-8);}.cls-17{fill:#469479;}.cls-18{clip-path:url(#clip-path-9);}.cls-19{fill:#4a9155;}</style><clipPath id="clip-path"><rect class="cls-1" x="0.37" y="0.14" width="580.24" height="103.57"/></clipPath><clipPath id="clip-path-3"><rect class="cls-1" x="46.93" y="32.18" width="78.19" height="78.19"/></clipPath><clipPath id="clip-path-4"><rect class="cls-1" x="37.21" y="32.86" width="69.27" height="69.27"/></clipPath><clipPath id="clip-path-5"><rect class="cls-1" x="65.8" y="-4.73" width="60.43" height="60.44"/></clipPath><clipPath id="clip-path-6"><rect class="cls-1" x="46.11" y="-1.38" width="77.89" height="77.89"/></clipPath><clipPath id="clip-path-7"><rect class="cls-1" x="46.3" y="-7.18" width="129.18" height="129.18"/></clipPath><clipPath id="clip-path-8"><rect class="cls-1" x="-22.7" y="-0.85" width="127.62" height="127.62"/></clipPath><clipPath id="clip-path-9"><rect class="cls-1" x="-7.67" y="-26.5" width="123.04" height="123.04"/></clipPath></defs><g class="cls-2"><g id="Layer_6" data-name="Layer 6"><g class="cls-3"><path class="cls-4" d="M361.74,34.53h1.37V60.28a12.13,12.13,0,0,1-2.92,8.54A10,10,0,0,1,352.45,72c-3.45,0-6.09-.93-7.92-2.77s-2.74-4.49-2.74-7.92h1.37q0,4.51,2.32,6.92t7,2.4a8.75,8.75,0,0,0,6.64-2.72,10.54,10.54,0,0,0,2.65-7.39Z"/><path class="cls-4" d="M352.45,72.26c-3.51,0-6.23-1-8.1-2.84s-2.81-4.61-2.81-8.1v-.25h1.87v.25c0,2.93.75,5.2,2.25,6.74s3.78,2.33,6.79,2.33a8.55,8.55,0,0,0,6.46-2.64,10.41,10.41,0,0,0,2.58-7.22V34.28h1.87v26a12.44,12.44,0,0,1-3,8.71A10.29,10.29,0,0,1,352.45,72.26ZM342,61.57c0,3.23.94,5.75,2.67,7.49s4.37,2.7,7.74,2.7A9.81,9.81,0,0,0,360,68.65a12,12,0,0,0,2.85-8.37V34.78H362V60.53a10.86,10.86,0,0,1-2.72,7.56,9,9,0,0,1-6.82,2.8c-3.15,0-5.56-.84-7.15-2.48a9.65,9.65,0,0,1-2.39-6.84Z"/><path class="cls-4" d="M377.11,55.88V71.5h-1.37v-37h11.55q5.67,0,8.8,2.86a10.19,10.19,0,0,1,3.14,7.93q0,5-3.06,7.77t-8.7,2.79Zm0-1.37h10.18c3.34,0,5.93-.8,7.79-2.41a8.45,8.45,0,0,0,2.78-6.73,8.91,8.91,0,0,0-2.78-7c-1.86-1.66-4.45-2.5-7.79-2.5H377.11Z"/><path class="cls-4" d="M377.36,71.75h-1.87V34.28h11.8c3.83,0,6.84,1,9,2.92a10.47,10.47,0,0,1,3.22,8.12,10.2,10.2,0,0,1-3.14,8c-2.08,1.86-5.06,2.82-8.87,2.85H377.36Zm-1.37-.5h.87V55.63h10.61c3.68,0,6.55-1,8.53-2.72s3-4.33,3-7.59a10,10,0,0,0-3.06-7.75c-2-1.85-4.93-2.79-8.63-2.79H376Zm11.3-16.49H376.86V35.65h10.43c3.39,0,6.06.87,7.95,2.57a9.16,9.16,0,0,1,2.87,7.15,8.72,8.72,0,0,1-2.87,6.92C393.35,53.93,390.68,54.76,387.29,54.76Zm-9.93-.5h9.93c3.26,0,5.83-.79,7.62-2.35a8.22,8.22,0,0,0,2.7-6.54,8.69,8.69,0,0,0-2.7-6.78c-1.8-1.62-4.36-2.44-7.62-2.44h-9.93Z"/><path class="cls-4" d="M423.64,55.68H410.82V71.5h-1.37v-37h11.78q5.55,0,8.85,2.87a9.81,9.81,0,0,1,3.28,7.8A10.07,10.07,0,0,1,431,51.81a10,10,0,0,1-6,3.52l9.87,15.81v.36h-1.44Zm-12.82-1.37h11.65a9.4,9.4,0,0,0,6.9-2.59A8.78,8.78,0,0,0,432,45.2a8.52,8.52,0,0,0-2.9-6.81c-1.94-1.66-4.6-2.49-8-2.49H410.82Z"/><path class="cls-4" d="M435.16,71.75h-1.83L423.5,55.93H411.07V71.75H409.2V34.28h12a13.31,13.31,0,0,1,9,2.93,10.1,10.1,0,0,1,3.37,8,10.36,10.36,0,0,1-2.4,6.77,10.2,10.2,0,0,1-5.77,3.53l9.72,15.57Zm-1.56-.5h1.06v0l-10-16.07.36-.07a9.72,9.72,0,0,0,5.83-3.43,9.83,9.83,0,0,0,2.29-6.45,9.59,9.59,0,0,0-3.2-7.61,12.81,12.81,0,0,0-8.68-2.81H409.7V71.25h.87V55.43h13.21ZM422.47,54.56h-11.9V35.65h10.56a12.15,12.15,0,0,1,8.12,2.55,8.75,8.75,0,0,1,3,7,9.07,9.07,0,0,1-2.7,6.7A9.66,9.66,0,0,1,422.47,54.56Zm-11.4-.5h11.4a9.22,9.22,0,0,0,6.72-2.52,8.58,8.58,0,0,0,2.55-6.34,8.29,8.29,0,0,0-2.82-6.62,11.64,11.64,0,0,0-7.79-2.43H411.07Z"/><path class="cls-4" d="M472.37,55.78a20.06,20.06,0,0,1-1.71,8.5A13.12,13.12,0,0,1,465.77,70a13.35,13.35,0,0,1-7.31,2,12.75,12.75,0,0,1-10.11-4.45q-3.86-4.44-3.85-12V50.25a20,20,0,0,1,1.71-8.48,13.14,13.14,0,0,1,4.9-5.73,14.24,14.24,0,0,1,14.62,0,13.15,13.15,0,0,1,4.92,5.74,19.9,19.9,0,0,1,1.72,8.47ZM471,50.2q0-6.71-3.4-10.76a12.39,12.39,0,0,0-18.31,0q-3.39,4-3.4,11v5.4a18.64,18.64,0,0,0,1.54,7.81,11.77,11.77,0,0,0,4.38,5.22,12,12,0,0,0,6.65,1.83,11.33,11.33,0,0,0,9.17-4q3.38-4,3.37-11Z"/><path class="cls-4" d="M458.46,72.26a13,13,0,0,1-10.29-4.53c-2.61-3-3.92-7.08-3.92-12.15V50.25A20.4,20.4,0,0,1,446,41.66a13.43,13.43,0,0,1,5-5.83,14.48,14.48,0,0,1,14.89,0,13.47,13.47,0,0,1,5,5.84,20.15,20.15,0,0,1,1.75,8.58v5.53a20.35,20.35,0,0,1-1.73,8.6,13.49,13.49,0,0,1-5,5.82A13.63,13.63,0,0,1,458.46,72.26Zm0-38a13.23,13.23,0,0,0-7.17,2,12.93,12.93,0,0,0-4.8,5.62,19.75,19.75,0,0,0-1.69,8.38v5.33c0,4.94,1.27,8.92,3.79,11.82a12.57,12.57,0,0,0,9.92,4.36,13.19,13.19,0,0,0,7.18-2,12.94,12.94,0,0,0,4.79-5.61,19.7,19.7,0,0,0,1.69-8.39V50.25a19.69,19.69,0,0,0-1.7-8.36,13,13,0,0,0-4.82-5.64A13.22,13.22,0,0,0,458.41,34.27Zm0,36.62A12.33,12.33,0,0,1,451.67,69a12.08,12.08,0,0,1-4.47-5.33,19.12,19.12,0,0,1-1.56-7.91v-5.4c0-4.67,1.17-8.41,3.46-11.12a12.64,12.64,0,0,1,18.69,0c2.3,2.74,3.46,6.41,3.46,10.92v5.38c0,4.69-1.15,8.45-3.43,11.18A11.61,11.61,0,0,1,458.46,70.89Zm0-35.25a11.16,11.16,0,0,0-8.93,3.94c-2.21,2.62-3.34,6.26-3.34,10.8v5.4a18.51,18.51,0,0,0,1.52,7.71,11.69,11.69,0,0,0,4.28,5.11,11.83,11.83,0,0,0,6.52,1.79,11.13,11.13,0,0,0,9-4c2.21-2.63,3.32-6.29,3.32-10.86V50.2c0-4.39-1.12-8-3.34-10.6A11.22,11.22,0,0,0,458.41,35.64Z"/><path class="cls-4" d="M492.6,67.89l.73,2.24.74-2.24,12.41-33.36H508l-13.81,37h-1.68l-13.81-37h1.5Z"/><path class="cls-4" d="M494.34,71.75h-2l-14-37.47h2l12.48,33.54.5,1.51.5-1.51,12.48-33.54h2Zm-1.67-.5H494l13.62-36.47h-1L494.3,68l-1,3-1-3L480,34.78h-1Z"/><g class="cls-3"><path class="cls-4" d="M192.91,42.08V61.61a8.45,8.45,0,0,1-2.84,6.58,10.67,10.67,0,0,1-7.33,2.44l-.82,0a10.36,10.36,0,0,1-6.86-2.7,8.6,8.6,0,0,1-2.52-6.46V42.08H171.1V61.47a9.93,9.93,0,0,0,3.15,7.82,14.22,14.22,0,0,0,16.93,0,9.9,9.9,0,0,0,3.19-7.77V42.08Z"/><path class="cls-4" d="M182.74,72.27a12.53,12.53,0,0,1-8.61-2.85,10.17,10.17,0,0,1-3.2-8V41.91h1.79V61.45a8.52,8.52,0,0,0,2.46,6.34,10.24,10.24,0,0,0,6.75,2.64l.81,0a10.59,10.59,0,0,0,7.22-2.4,8.32,8.32,0,0,0,2.77-6.45V41.91h1.82V61.55a10.09,10.09,0,0,1-3.25,7.9,12.56,12.56,0,0,1-8.56,2.82"/><path class="cls-4" d="M203,71.52V52a8.49,8.49,0,0,1,2.84-6.59A10.74,10.74,0,0,1,213.17,43l.82,0a10.31,10.31,0,0,1,6.86,2.7,8.6,8.6,0,0,1,2.52,6.46V71.52h1.44V52.13a9.93,9.93,0,0,0-3.15-7.82,14.22,14.22,0,0,0-16.93,0,9.87,9.87,0,0,0-3.19,7.77V71.52Z"/><path class="cls-4" d="M225,71.69H223.2V52.15a8.49,8.49,0,0,0-2.47-6.34A10.22,10.22,0,0,0,214,43.17l-.81,0a10.61,10.61,0,0,0-7.22,2.4A8.35,8.35,0,0,0,203.18,52v19.7h-1.81V52.05a10.12,10.12,0,0,1,3.24-7.9,14.42,14.42,0,0,1,17.17,0,10.15,10.15,0,0,1,3.2,8Z"/><path class="cls-4" d="M234.51,34a1.44,1.44,0,0,0,1.06.44,1.5,1.5,0,0,0,1.07-.44,1.41,1.41,0,0,0,.45-1,1.44,1.44,0,0,0-.45-1.07,1.47,1.47,0,0,0-1.07-.45,1.41,1.41,0,0,0-1.06.45,1.46,1.46,0,0,0-.43,1.07,1.43,1.43,0,0,0,.43,1m1.79,8.11h-1.47V71.45h1.47Z"/><path class="cls-4" d="M236.47,71.63h-1.81V41.94h1.81Zm-.9-37A1.66,1.66,0,0,1,233.9,33a1.66,1.66,0,0,1,.48-1.2,1.67,1.67,0,0,1,2.38,0,1.64,1.64,0,0,1,.5,1.2,1.59,1.59,0,0,1-.5,1.18,1.65,1.65,0,0,1-1.19.48"/><path class="cls-4" d="M247.72,64.57c0,2.56.49,4.42,1.41,5.61S251.58,72,253.71,72a9.92,9.92,0,0,0,3.07-.33l-.25-1.38a21.33,21.33,0,0,1-2.9.24,3.8,3.8,0,0,1-3.4-1.49,8.26,8.26,0,0,1-1-4.61V43.54h6.67V42.07h-6.67V34.16h-1.49Z"/><path class="cls-4" d="M253.71,72.13c-2.18,0-3.77-.62-4.72-1.84s-1.43-3.14-1.44-5.71V34h1.84V41.9h6.67v1.81h-6.67V64.39a8.22,8.22,0,0,0,1,4.51,3.68,3.68,0,0,0,3.26,1.42,21.19,21.19,0,0,0,2.88-.24l.16,0,.3,1.7-.13,0a10.42,10.42,0,0,1-3.13.33"/><path class="cls-4" d="M278.41,44.44a9.67,9.67,0,0,1,3.47,4A12.28,12.28,0,0,1,283.15,54v.36H262.7a13.53,13.53,0,0,1,3.5-8.12A9.56,9.56,0,0,1,273.46,43a8.92,8.92,0,0,1,5,1.42m5.33,22.8-1-.74a10.08,10.08,0,0,1-3.67,3,11.63,11.63,0,0,1-5,1,10.24,10.24,0,0,1-5.74-1.74A11.86,11.86,0,0,1,264.12,64a14.79,14.79,0,0,1-1.5-6.62v-1.6h22V54.25a13.32,13.32,0,0,0-3.12-9.2,10.26,10.26,0,0,0-8-3.49,11,11,0,0,0-6.2,1.89,12.89,12.89,0,0,0-4.48,5.29,17.09,17.09,0,0,0-1.63,7.46v1.22a16.08,16.08,0,0,0,1.69,7.4,13,13,0,0,0,4.65,5.25A11.83,11.83,0,0,0,274,72q6.45,0,9.73-4.74"/><path class="cls-4" d="M262.89,54.15a13.43,13.43,0,0,1,3.43-7.82,9.46,9.46,0,0,1,7.14-3.14,8.79,8.79,0,0,1,4.86,1.4,9.56,9.56,0,0,1,3.41,3.92A12.29,12.29,0,0,1,283,54v.18M284.78,56V54.25a13.52,13.52,0,0,0-3.16-9.31,10.48,10.48,0,0,0-8.16-3.56,11.18,11.18,0,0,0-6.3,1.93,13.2,13.2,0,0,0-4.54,5.35A17.31,17.31,0,0,0,261,56.2v1.22a16.42,16.42,0,0,0,1.7,7.48,13.37,13.37,0,0,0,4.71,5.32A12.1,12.1,0,0,0,274,72.15c4.34,0,7.67-1.62,9.88-4.82l.09-.14-1.3-.93-.11.14a10.06,10.06,0,0,1-3.61,3,11.56,11.56,0,0,1-4.95,1,10.12,10.12,0,0,1-5.64-1.7,11.68,11.68,0,0,1-4.09-4.71,14.57,14.57,0,0,1-1.49-6.54V56Z"/><path class="cls-4" d="M293.86,71.58a1.44,1.44,0,0,0,1.06.44,1.5,1.5,0,0,0,1.07-.44,1.41,1.41,0,0,0,.45-1,1.44,1.44,0,0,0-.45-1.07,1.47,1.47,0,0,0-1.07-.45,1.41,1.41,0,0,0-1.06.45,1.46,1.46,0,0,0-.43,1.07,1.43,1.43,0,0,0,.43,1m1.57-39.21H294V61h1.46Z"/><path class="cls-4" d="M294.92,72.19a1.6,1.6,0,0,1-1.18-.48,1.62,1.62,0,0,1-.49-1.18,1.66,1.66,0,0,1,.49-1.2,1.58,1.58,0,0,1,1.18-.5,1.71,1.71,0,0,1,1.69,1.7,1.59,1.59,0,0,1-.5,1.18,1.65,1.65,0,0,1-1.19.48m.69-11h-1.82v-29h1.82Z"/></g><rect class="cls-4" x="318.67" y="17.18" width="0.5" height="69.48"/><g class="cls-5"><g class="cls-6"><path class="cls-7" d="M69,88.35a21.15,21.15,0,1,0,0-29.91,21.15,21.15,0,0,0,0,29.91"/></g></g><g class="cls-5"><g class="cls-8"><path class="cls-9" d="M57,82.33a18,18,0,1,0,0-25.44,18,18,0,0,0,0,25.44"/></g></g><g class="cls-5"><g class="cls-10"><path class="cls-11" d="M83.39,38.12a14.87,14.87,0,1,0,0-21,14.87,14.87,0,0,0,0,21"/></g></g><g class="cls-5"><g class="cls-12"><path class="cls-13" d="M68.06,54.56a21,21,0,1,0,0-29.75,21,21,0,0,0,0,29.75"/></g></g><g class="cls-5"><g class="cls-14"><path class="cls-15" d="M81.07,87.23a39.17,39.17,0,1,0,0-55.4,39.18,39.18,0,0,0,0,55.4"/></g></g><g class="cls-5"><g class="cls-16"><path class="cls-17" d="M11.68,92.4a38.62,38.62,0,1,0,0-54.62,38.63,38.63,0,0,0,0,54.62"/></g></g><g class="cls-5"><g class="cls-18"><path class="cls-19" d="M25.57,63.3a37,37,0,1,0,0-52.33,37,37,0,0,0,0,52.33"/></g></g></g></g></g></svg>