<svg xmlns="http://www.w3.org/2000/svg" viewBox="0 0 800 800"><defs><style>.cls-1{fill:#8cc1c2;}.cls-2,.cls-4{fill:none;}.cls-2{stroke:#fdffff;stroke-linecap:round;stroke-width:10px;stroke-dasharray:0 40.25;}.cls-2,.cls-3,.cls-4{stroke-miterlimit:10;}.cls-3{fill:#fff;stroke:#4a4a49;}.cls-4{stroke:#1d1d1b;}.cls-5{fill:#4c9455;}.cls-6{fill:#3f989a;}.cls-7{fill:#644380;}</style></defs><g id="iconography-1"><circle class="cls-1" cx="399.92" cy="398.25" r="350"/><circle class="cls-2" cx="399.92" cy="398.25" r="326.67"/><rect class="cls-3" x="205.26" y="141.58" width="389.33" height="513.33" rx="12" transform="translate(798.17 -1.67) rotate(90)"/><rect class="cls-3" x="221.92" y="163.27" width="357.33" height="471.14" rx="12" transform="translate(799.43 -1.75) rotate(90)"/><line class="cls-4" x1="397.01" y1="391.03" x2="397.01" y2="542.25"/><circle class="cls-5" cx="397.12" cy="365.02" r="17.93"/><line class="cls-4" x1="315.34" y1="356.29" x2="315.34" y2="542.25"/><line class="cls-4" x1="478.68" y1="328.33" x2="478.68" y2="542.25"/><circle class="cls-6" cx="478.82" cy="300.02" r="17.93"/><line class="cls-4" x1="233.68" y1="328.33" x2="233.68" y2="542.25"/><circle class="cls-6" cx="233.82" cy="301.02" r="17.93"/><circle class="cls-7" cx="315.23" cy="330.02" r="17.93"/><path class="cls-5" d="M561.79,324.58l-9.08,102.61-7.8-32.95L531.34,425.3l9.37-105.82A62.63,62.63,0,0,0,561.79,324.58Z"/><polygon class="cls-5" points="557.31 256.82 557.22 257.91 557.09 256.98 557.31 256.82"/><polygon class="cls-5" points="557.09 256.98 557.31 256.82 557.22 257.91 557.09 256.98"/><path class="cls-5" d="M605.41,424.4,590.56,394l-6.41,33.29-13.76-102.7a62.46,62.46,0,0,0,21-5.19Z"/><path class="cls-5" d="M557.09,257l.13.93.09-1.09Z"/><path class="cls-5" d="M565.89,194.52a63.1,63.1,0,0,0-4.1,126.06c1.36.09,2.72.13,4.1.13s3,0,4.5-.16a62.46,62.46,0,0,0,21-5.19,63.1,63.1,0,0,0-25.45-120.84Zm20.37,82.9,7.55,22.66-5-3.7-22.28-16.45-1.21.89-.09,1.09-.13-.93-22.82,16.85-3,2.25,3.88-11.63L550,267.89l-4.74-3.39-22.87-16.34,33.93.26,10.24-32.35,10.23,32.35,33.93-.26-25.87,18.49-1.73,1.24Z"/></g></svg>