<svg xmlns="http://www.w3.org/2000/svg" viewBox="0 0 800 800"><defs><style>.cls-1{fill:#8cc1c2;}.cls-2,.cls-4,.cls-8{fill:none;}.cls-2{stroke:#fdffff;stroke-linecap:round;stroke-width:10px;stroke-dasharray:0 40.25;}.cls-2,.cls-3,.cls-4,.cls-8{stroke-miterlimit:10;}.cls-3{fill:#fff;stroke:#4a4a49;}.cls-4{stroke:#1d1d1b;}.cls-5{fill:#4c9455;}.cls-6{fill:#3f989a;}.cls-7{fill:#644380;}.cls-8{stroke:#4c9455;stroke-width:7px;}</style></defs><g id="iconography-1"><circle class="cls-1" cx="398.72" cy="397" r="350"/><circle class="cls-2" cx="399.92" cy="399.25" r="326.67"/><rect class="cls-3" x="205.26" y="142.58" width="389.33" height="513.33" rx="12" transform="translate(799.17 -0.67) rotate(90)"/><rect class="cls-3" x="221.92" y="164.35" width="357.33" height="471.14" rx="12" transform="translate(800.51 -0.67) rotate(90)"/><polyline class="cls-4" points="471.92 307.58 280.26 307.58 280.26 399.8 280.26 492.01 471.92 492.01"/><line class="cls-4" x1="553.26" y1="399.8" x2="280.26" y2="399.8"/><circle class="cls-5" cx="472.36" cy="307.51" r="17.93"/><circle class="cls-6" cx="568.43" cy="399.1" r="17.93"/><circle class="cls-7" cx="485.43" cy="492.1" r="17.93"/><circle class="cls-1" cx="280.59" cy="399.25" r="27.33"/><polyline class="cls-8" points="249.26 379.88 280.44 411.92 311.83 351.25"/><path class="cls-3" d="M493.92,198.58v12a16,16,0,0,1-16,16H319.26a16,16,0,0,1-16-16v-12a16,16,0,0,1,16-16h46.66v-2.66a16,16,0,0,1,16-16h37.34a16,16,0,0,1,16,16v2.66h42.66A16,16,0,0,1,493.92,198.58Z"/></g></svg>